<svg width="42" height="40" viewBox="0 0 42 40" fill="none" xmlns="http://www.w3.org/2000/svg">
<path d="M39.0337 0.0980396L23.1398 12.5026L26.0954 5.19217L39.0337 0.0980396Z" fill="#E17726" stroke="#E17726" stroke-width="0.142968" stroke-linecap="round" stroke-linejoin="round"/>
<path d="M2.37244 0.0980396L18.1248 12.6184L15.3108 5.19217L2.37244 0.0980396Z" fill="#E27625" stroke="#E27625" stroke-width="0.142968" stroke-linecap="round" stroke-linejoin="round"/>
<path d="M33.3113 28.86L29.0823 35.6743L38.1376 38.304L40.7316 29.0089L33.3113 28.86Z" fill="#E27625" stroke="#E27625" stroke-width="0.142968" stroke-linecap="round" stroke-linejoin="round"/>
<path d="M0.6903 29.0089L3.26853 38.304L12.3081 35.6743L8.09486 28.86L0.6903 29.0089Z" fill="#E27625" stroke="#E27625" stroke-width="0.142968" stroke-linecap="round" stroke-linejoin="round"/>
<path d="M11.8207 17.3486L9.30537 21.3511L18.2663 21.7812L17.9676 11.6095L11.8207 17.3486Z" fill="#E27625" stroke="#E27625" stroke-width="0.142968" stroke-linecap="round" stroke-linejoin="round"/>
<path d="M29.5854 17.3486L23.3442 11.4937L23.1398 21.7812L32.1008 21.3511L29.5854 17.3486Z" fill="#E27625" stroke="#E27625" stroke-width="0.142968" stroke-linecap="round" stroke-linejoin="round"/>
<path d="M12.3081 35.6743L17.7318 32.9122L13.0627 29.075L12.3081 35.6743Z" fill="#E27625" stroke="#E27625" stroke-width="0.142968" stroke-linecap="round" stroke-linejoin="round"/>
<path d="M23.6743 32.9122L29.0823 35.6743L28.3435 29.075L23.6743 32.9122Z" fill="#E27625" stroke="#E27625" stroke-width="0.142968" stroke-linecap="round" stroke-linejoin="round"/>
<path d="M29.0823 35.6743L23.6743 32.9122L24.1145 36.617L24.0674 38.1883L29.0823 35.6743Z" fill="#D5BFB2" stroke="#D5BFB2" stroke-width="0.142968" stroke-linecap="round" stroke-linejoin="round"/>
<path d="M12.3081 35.6742L17.3388 38.1882L17.3073 36.617L17.7318 32.9122L12.3081 35.6742Z" fill="#D5BFB2" stroke="#D5BFB2" stroke-width="0.142968" stroke-linecap="round" stroke-linejoin="round"/>
<path d="M17.4331 26.6272L12.9369 25.2379L16.1125 23.6997L17.4331 26.6272Z" fill="#233447" stroke="#233447" stroke-width="0.142968" stroke-linecap="round" stroke-linejoin="round"/>
<path d="M23.973 26.6272L25.2936 23.6997L28.4849 25.2379L23.973 26.6272Z" fill="#233447" stroke="#233447" stroke-width="0.142968" stroke-linecap="round" stroke-linejoin="round"/>
<path d="M12.3081 35.6742L13.0941 28.86L8.09486 29.0089L12.3081 35.6742Z" fill="#CC6228" stroke="#CC6228" stroke-width="0.142968" stroke-linecap="round" stroke-linejoin="round"/>
<path d="M28.312 28.86L29.0823 35.6742L33.3113 29.0089L28.312 28.86Z" fill="#CC6228" stroke="#CC6228" stroke-width="0.142968" stroke-linecap="round" stroke-linejoin="round"/>
<path d="M32.1008 21.3511L23.1398 21.7812L23.973 26.6272L25.2936 23.6997L28.4849 25.2379L32.1008 21.3511Z" fill="#CC6228" stroke="#CC6228" stroke-width="0.142968" stroke-linecap="round" stroke-linejoin="round"/>
<path d="M12.9369 25.2379L16.1126 23.6997L17.4331 26.6272L18.2663 21.7812L9.30538 21.3511L12.9369 25.2379Z" fill="#CC6228" stroke="#CC6228" stroke-width="0.142968" stroke-linecap="round" stroke-linejoin="round"/>
<path d="M9.30538 21.3511L13.0627 29.075L12.9369 25.2379L9.30538 21.3511Z" fill="#E27525" stroke="#E27525" stroke-width="0.142968" stroke-linecap="round" stroke-linejoin="round"/>
<path d="M28.4849 25.2379L28.3435 29.075L32.1008 21.3511L28.4849 25.2379Z" fill="#E27525" stroke="#E27525" stroke-width="0.142968" stroke-linecap="round" stroke-linejoin="round"/>
<path d="M18.2663 21.7812L17.4331 26.6272L18.4864 32.3498L18.7222 24.8079L18.2663 21.7812Z" fill="#E27525" stroke="#E27525" stroke-width="0.142968" stroke-linecap="round" stroke-linejoin="round"/>
<path d="M23.1398 21.7812L22.6996 24.7913L22.9197 32.3498L23.973 26.6272L23.1398 21.7812Z" fill="#E27525" stroke="#E27525" stroke-width="0.142968" stroke-linecap="round" stroke-linejoin="round"/>
<path d="M23.973 26.6272L22.9197 32.3498L23.6743 32.9122L28.3434 29.075L28.4849 25.2379L23.973 26.6272Z" fill="#F5841F" stroke="#F5841F" stroke-width="0.142968" stroke-linecap="round" stroke-linejoin="round"/>
<path d="M12.9369 25.2379L13.0627 29.075L17.7318 32.9122L18.4864 32.3498L17.4331 26.6272L12.9369 25.2379Z" fill="#F5841F" stroke="#F5841F" stroke-width="0.142968" stroke-linecap="round" stroke-linejoin="round"/>
<path d="M24.0674 38.1882L24.1145 36.617L23.7058 36.2531H17.7004L17.3073 36.617L17.3388 38.1882L12.3081 35.6743L14.0688 37.1959L17.6375 39.7926H23.7529L27.3373 37.1959L29.0823 35.6743L24.0674 38.1882Z" fill="#C0AC9D" stroke="#C0AC9D" stroke-width="0.142968" stroke-linecap="round" stroke-linejoin="round"/>
<path d="M23.6743 32.9122L22.9197 32.3498H18.4864L17.7318 32.9122L17.3073 36.617L17.7004 36.2531H23.7058L24.1145 36.617L23.6743 32.9122Z" fill="#161616" stroke="#161616" stroke-width="0.142968" stroke-linecap="round" stroke-linejoin="round"/>
<path d="M39.7097 13.313L41.046 6.4657L39.0337 0.0980396L23.6743 12.0891L29.5854 17.3486L37.9332 19.9122L39.7726 17.6463L38.9708 17.0344L40.2442 15.8105L39.2695 15.0166L40.5429 13.9911L39.7097 13.313Z" fill="#763E1A" stroke="#763E1A" stroke-width="0.142968" stroke-linecap="round" stroke-linejoin="round"/>
<path d="M0.360153 6.4657L1.71216 13.313L0.847503 13.9911L2.13662 15.0166L1.16192 15.8105L2.43532 17.0344L1.63355 17.6463L3.4729 19.9122L11.8207 17.3486L17.7318 12.0891L2.37244 0.0980396L0.360153 6.4657Z" fill="#763E1A" stroke="#763E1A" stroke-width="0.142968" stroke-linecap="round" stroke-linejoin="round"/>
<path d="M37.9332 19.9122L29.5854 17.3486L32.1008 21.3511L28.3435 29.075L33.3113 29.0089H40.7316L37.9332 19.9122Z" fill="#F5841F" stroke="#F5841F" stroke-width="0.142968" stroke-linecap="round" stroke-linejoin="round"/>
<path d="M11.8207 17.3486L3.47291 19.9122L0.6903 29.0089H8.09486L13.0627 29.075L9.30538 21.3511L11.8207 17.3486Z" fill="#F5841F" stroke="#F5841F" stroke-width="0.142968" stroke-linecap="round" stroke-linejoin="round"/>
<path d="M23.1398 21.7812L23.6743 12.0891L26.0954 5.19216H15.3108L17.7318 12.0891L18.2663 21.7812L18.4707 24.8244L18.4864 32.3498H22.9197L22.9354 24.8244L23.1398 21.7812Z" fill="#F5841F" stroke="#F5841F" stroke-width="0.142968" stroke-linecap="round" stroke-linejoin="round"/>
</svg>
